# xmcd
#
# Track frame offsets: 
#        150
#        13080
#        30337
#        47795
#        66082
#        86012
#        104815
#        116000
#        128610
#        145597
#        162762
#        187290
#
# Disc length: 2726 seconds
#
# Revision: 2
# Processed by: cddbd v1.5.2PL0 Copyright (c) Steve Scherf et al.
# Submitted via: ExactAudioCopy v1.0b3
#
DISCID=a30aa40c
DTITLE=Williams, Lucinda - Sweet Old World
DYEAR=1992
DGENRE=Country
TTITLE0=Six Blocks Away
TTITLE1=Something About What Happens When We Talk
TTITLE2=He Never Got Enough Love
TTITLE3=Sweet Old World
TTITLE4=Little Angel, Little Brother
TTITLE5=Pineola
TTITLE6=Lines Around Your Eyes
TTITLE7=Prove My Love
TTITLE8=Sidewalks Of The City
TTITLE9=Memphis Pearl
TTITLE10=Hot Blood
TTITLE11=Which Will
EXTD=
EXTT0=
EXTT1=
EXTT2=
EXTT3=
EXTT4=
EXTT5=
EXTT6=
EXTT7=
EXTT8=
EXTT9=
EXTT10=
EXTT11=
PLAYORDER=
